<svg width="193" height="272" viewBox="0 0 193 272" fill="none" xmlns="http://www.w3.org/2000/svg">
<path fill-rule="evenodd" clip-rule="evenodd" d="M13.1842 169.99C13.9966 167.853 12.8111 165.72 12.1529 163.651C9.81628 156.48 7.26431 149.307 3.65535 142.619C2.28761 140.38 4.5374 137.636 7.1432 138.267C11.6061 138.867 16.2072 138.389 20.6774 138.124C22.3119 134.07 26.6757 132.387 30.1097 130.051C34.0061 127.72 37.7962 125.041 41.8492 122.997C42.0743 121.064 44.5174 120.586 46.0112 121.967C50.1144 119.52 55.0348 119.975 59.4329 118.371C62.7751 113.192 63.0259 107.745 63.9104 102.749C64.297 100.57 63.8872 98.4688 65.4384 96.527C70.6537 89.495 91.2566 86.4451 98.8538 90.6125C102.942 88.1676 103.041 92.5965 103.69 95.3298C104.413 96.697 104.803 98.246 104.682 99.877C109.074 108.674 119.123 112.65 128.122 115.872C129.251 114.83 130.865 114.962 131.939 115.824C139.739 117.449 147.31 120.308 153.845 124.771C161.27 126.853 166.5 132.644 170.281 138.852C170.697 139.507 170.796 140.174 170.674 140.787C182.302 157.131 187.851 176.696 188.631 196.457C196.109 200.76 185.077 239.415 182.509 247.44C182.506 247.439 182.504 247.438 182.501 247.437C180.835 250.265 178.943 258.336 174.774 257.711C171.914 260.813 167.356 260.203 163.475 260.441C164.107 262.766 163.796 265.427 163.044 267.724C162.154 270.458 157.787 270.551 157.168 267.569C118.516 274.77 78.8589 269.025 39.7732 270.105C28.4716 270.183 17.1725 270.518 5.8978 271.29C4.31107 271.399 2.7011 269.843 2.80998 268.328C5.23349 243.601 7.50899 211.074 10.22 186.591C10.8623 181.007 11.3712 175.362 13.1842 169.99Z" fill="#F3E8DA"/>
<path fill-rule="evenodd" clip-rule="evenodd" d="M103.054 92.1391C102.942 91.8483 102.491 91.887 102.482 92.213C102.304 99.1653 104.109 107.661 109.911 112.357C112.89 114.768 116.826 115.871 120.443 117.139L120.85 117.283L127.239 119.565C128.934 120.17 130.762 121.101 132.258 120.246C131.047 123.126 130.03 126.084 128.555 128.86C126.719 132.315 124.499 135.475 121.782 138.351C111.019 149.741 93.9834 153.215 78.6961 149.878C70.8236 148.159 63.1641 144.902 57.7934 138.961C53.7122 134.446 51.367 128.386 50.8141 122.408C50.9755 122.433 51.1456 122.432 51.3193 122.395C53.2535 121.991 55.206 120.996 56.9077 120.022L57.0717 119.928C58.7097 118.982 60.4164 117.9 61.592 116.43C62.7592 114.972 63.9837 110.214 63.9837 110.214C64.3177 108.426 64.6309 104.864 64.5771 103.057C64.5722 102.887 63.7831 102.786 63.6987 102.963C62.9696 104.497 62.7334 107.869 62.1707 109.465L62.0582 109.784C61.4563 111.453 60.9412 113.482 59.6958 114.831C57.3555 117.363 53.826 118.434 50.6758 119.703C50.4495 116.842 45.6832 116.909 45.7444 119.893C45.748 120.055 45.7554 120.217 45.7615 120.377C45.3847 120.575 45.0238 120.802 44.6862 121.021L44.3559 121.236C43.108 122.049 41.8504 122.823 40.5218 123.513C37.9502 124.851 35.2258 125.911 32.5906 127.123C29.9236 128.352 27.4304 129.814 25.1011 131.566C24.0074 132.388 22.9589 133.263 21.9643 134.194L21.6952 134.449C20.7483 135.353 19.5163 136.364 18.9768 137.552C18.8582 137.814 18.2624 138.423 17.9394 138.443C12.9309 138.759 7.9334 139.203 2.95792 139.869C1.66847 140.041 1.15956 140.678 1.63545 141.708C3.27234 145.247 9.67917 159.378 11.3833 163.171C11.1839 165.957 11.4531 169.236 11.2732 172.024C11.0114 176.09 10.6677 180.155 10.2566 184.21C8.78242 198.717 6.54976 213.154 4.53117 227.598C3.5219 234.826 2.60069 242.065 1.69171 249.306C1.23296 252.966 0.842697 256.628 0.542969 260.302C0.418182 261.834 0.304413 263.366 0.205322 264.899L0.118454 266.259C-0.000213623 267.97 -0.27301 269.603 0.831696 271.073C1.33206 271.739 2.47591 272.114 3.13408 271.356C3.96109 270.405 4.26938 269.695 4.34769 268.445C4.40884 267.488 4.42352 266.528 4.4688 265.57C4.56667 263.494 4.69022 261.419 4.83458 259.346C5.12329 255.201 5.45361 251.057 5.83531 246.917C7.17247 232.407 9.71587 218.005 11.4078 203.53C12.2605 196.233 12.8673 188.922 13.1878 181.584C13.3481 177.919 13.4068 174.255 13.3689 170.588C13.3542 169.218 13.2869 167.854 13.189 166.494C15.7239 172.015 18.3884 177.484 21.1753 182.879L21.8347 184.157C23.6012 187.568 25.4143 190.991 27.5356 194.206L27.9014 194.755C28.7602 196.061 29.9347 198.121 31.503 198.532C32.5943 198.819 33.929 198.618 35.0484 198.597C36.1604 198.577 37.2725 198.572 38.3833 198.529C39.6287 198.48 40.8166 198.323 42.0204 198.013C42.2211 197.961 42.4095 197.905 42.582 197.833C43.7943 199.736 45.8557 201.186 47.9624 202.03C49.6494 202.706 51.4184 203.17 53.1899 203.599L53.815 203.75C55.7137 204.203 57.8864 204.418 58.9581 206.177L59.2064 206.585C60.0029 207.882 60.7663 209.022 62.0851 209.952C63.503 210.953 65.1839 211.583 66.8587 212.073C68.5726 212.575 70.327 212.958 72.0678 213.37L72.5425 213.484C73.6913 213.759 74.851 214.013 75.9937 214.312C76.4806 214.44 76.976 214.572 77.4544 214.729C78.0147 214.914 78.4208 215.202 78.8625 215.515C79.2601 216.844 80.9569 217.567 82.3516 217.474C83.0844 217.426 83.7413 217.188 84.3395 216.838C85.3843 217.69 86.5331 218.453 87.5974 219.242C89.0875 220.348 90.5837 221.445 92.0872 222.532C95.1885 224.774 98.3142 226.986 101.472 229.154C107.076 233.004 112.803 236.676 118.626 240.213C121.054 241.687 123.499 243.159 125.968 244.596L125.704 244.69L125.182 244.878C123.946 245.32 122.57 246.036 122.331 247.417C122.141 248.513 122.779 249.268 123.908 249.402C125.249 249.56 126.293 248.653 127.128 247.785C127.496 247.403 127.909 247.048 128.262 246.654C128.406 246.493 128.517 246.308 128.614 246.113C131.05 247.49 133.512 248.819 136.013 250.064L136.639 250.373C142.842 253.414 148.879 256.745 155.134 259.7C156.765 260.471 158.755 261.305 160.828 261.874C160.278 263.919 160.286 266.164 160.272 268.24C160.259 270.262 163.612 270.253 163.541 268.24L163.507 267.268C163.446 265.632 163.346 263.935 162.942 262.345C169.051 263.316 175.155 261.205 176.291 260.571C177.545 259.871 178.684 258.752 179.631 257.715C181.659 255.491 183.066 252.828 184.314 250.149C186.989 244.41 188.883 238.276 190.268 232.141C195.375 209.523 193.178 185.315 184.885 163.634C182.814 158.216 180.367 152.919 177.564 147.813L177.216 147.181C174.419 142.132 171.311 137.102 167.362 132.805C163.249 128.33 158.175 124.849 152.65 122.148C149.955 120.829 147.18 119.687 144.345 118.673C143.89 118.51 143.431 118.365 142.972 118.226C140.017 116.42 136.431 114.691 132.844 114.759C132.6 114.764 132.403 114.852 132.255 114.986C132.083 115.015 131.91 115.05 131.736 115.098C131.354 115.205 130.95 115.607 131.005 116.02L131.024 116.157C131.034 116.224 131.047 116.288 131.068 116.352C130.94 116.371 130.814 116.4 130.691 116.44C127.259 115.51 123.882 114.089 120.533 112.943L119.771 112.684C116.966 111.742 114.087 110.818 111.786 108.953C109.497 107.097 107.776 104.693 106.532 102.094C104.999 98.8932 104.312 95.4259 103.054 92.1391ZM34.3388 260.987C33.6598 260.503 32.8561 261.065 32.6016 261.665C31.7673 263.634 32.1796 266.693 33.3564 268.434C34.5749 270.238 37.4939 269.526 37.5649 267.341C37.6383 265.063 36.2571 262.357 34.3388 260.987ZM27.3191 206.617C27.2591 206.361 26.8444 206.364 26.782 206.617C26.2168 208.928 26.229 211.416 26.0639 213.785L26.0443 214.048C25.8449 216.66 25.6773 219.28 25.5574 221.896C25.3237 227.045 25.0436 232.193 24.7292 237.339C24.5738 239.889 24.4062 242.441 24.2288 244.99C23.671 244.692 23.096 244.43 22.5002 244.199C21.6083 243.854 20.7397 243.814 19.7806 243.823C18.6135 243.835 17.7351 244.82 17.8893 245.916C18.0581 247.11 19.1542 247.622 20.2932 247.452C21.5545 247.262 22.8207 246.969 24.0943 246.847C23.9523 248.819 23.8055 250.79 23.6514 252.76C23.4446 255.369 23.1767 257.974 22.9871 260.584C22.9699 260.832 22.9504 261.081 22.9296 261.332C22.1711 260.953 21.3649 260.759 20.451 260.521L20.2125 260.456C18.8863 260.091 17.466 259.586 16.2377 260.441C15.4131 261.017 15.248 261.963 15.9319 262.721C16.968 263.873 18.5022 263.65 19.9348 263.59L20.7055 263.563C21.4322 263.536 22.1014 263.492 22.773 263.316C22.6494 265.016 22.5846 266.722 22.8024 268.398C22.9198 269.303 24.1628 269.54 24.4919 268.616C25.3507 266.203 25.5293 263.6 25.8437 261.072C26.1373 258.711 26.3159 256.332 26.508 253.961L26.5667 253.249C26.9986 248.033 27.3448 242.811 27.598 237.584C27.8512 232.355 28.0029 227.129 28.0629 221.896C28.091 219.52 28.0494 217.135 27.9528 214.759L27.9222 214.048C27.8096 211.604 27.8879 209.011 27.3191 206.617ZM140.893 261.372C140.86 261.039 140.581 260.624 140.166 260.675C139.784 260.723 139.39 260.7 139.012 260.761C138.513 260.84 138.111 261.123 137.647 261.3C136.893 261.59 136.07 261.739 135.296 261.976C133.844 262.42 133.052 263.886 133.654 265.255C134.286 266.694 135.876 267.021 137.249 266.417C138.331 265.941 139.138 265.18 139.866 264.3L140.072 264.049C140.386 263.67 140.742 263.248 140.873 262.791C141.001 262.344 140.938 261.827 140.893 261.372ZM70.3343 254.607C68.5249 254.362 66.9798 254.956 65.3062 255.515L65.1704 255.559C63.4675 256.123 60.9816 256.514 60.1081 258.186C59.582 259.193 59.9906 260.532 61.2299 260.831C63.1934 261.303 64.9539 259.927 66.5773 259.001L66.6617 258.953C68.2289 258.072 69.8462 257.332 70.8469 255.815C71.1136 255.41 70.8824 254.681 70.3343 254.607ZM133.481 116.67C134.206 116.824 134.931 116.963 135.654 117.094C138.408 118.509 141.081 119.979 143.925 121.239C146.941 122.577 149.947 123.959 152.813 125.578C158.602 128.848 163.374 133.1 167.318 138.311C174.13 147.314 179.197 157.695 182.824 168.229C183.755 170.935 184.589 173.672 185.327 176.431C184.022 175.275 182.478 174.563 180.747 173.955C180.013 173.697 179.1 174.134 178.728 174.743C178.561 175.016 178.466 175.287 178.484 175.608C178.522 176.316 179.003 177.121 179.796 177.261C181.646 177.589 183.445 178.224 185.228 178.785C185.499 178.869 185.731 178.837 185.917 178.738C187.687 185.929 188.795 193.268 189.188 200.652C189.519 206.903 189.315 213.203 188.593 219.446C188.038 219.207 187.495 218.983 186.886 218.847C186.097 218.671 185.321 218.457 184.552 218.215C182.33 217.516 181.317 221.033 183.588 221.569C184.432 221.768 185.283 221.933 186.143 222.055C186.894 222.161 187.557 222.114 188.265 222.004C187.724 225.898 186.986 229.764 186.046 233.576L185.839 234.41C184.617 239.277 183.194 244.19 181.135 248.791C180.125 251.047 178.788 253.191 177.137 255.072C176.326 255.997 175.426 256.791 174.444 257.542C173.627 258.167 170.849 259.524 167.559 259.524C164.269 259.524 163.378 259.226 161.718 258.678C158.436 257.595 155.319 255.865 152.24 254.325L151.922 254.166C150.561 253.491 149.204 252.805 147.852 252.114C148.023 250.792 147.724 249.681 147.005 248.461C146.229 247.139 144.304 247.797 144.161 249.149L144.157 249.2C144.135 249.504 144.082 249.815 144.015 250.124C134.972 245.374 126.119 240.291 117.407 234.995C111.797 231.584 106.245 228.069 100.774 224.453C98.0389 222.645 95.3279 220.804 92.6439 218.928C91.2382 217.945 89.8386 216.955 88.4452 215.954C87.8653 215.538 87.2965 215.101 86.7154 214.682C86.856 214.513 86.9943 214.344 87.1276 214.177C89.2991 211.45 90.7072 208.201 91.4095 204.849C91.834 202.826 92.0383 200.726 92.1007 198.663L92.1276 197.766C92.1704 196.256 92.1826 194.674 91.8915 193.211C92.2866 193.418 92.6903 193.624 93.0928 193.842C94.5376 194.626 95.9824 195.408 97.4297 196.188C100.329 197.746 103.236 199.288 106.181 200.767C111.44 203.409 116.751 205.922 122.205 208.174L124.859 209.271C129.465 211.171 134.109 213.036 138.898 214.449C141.599 215.245 144.32 215.925 147.06 216.532L145.952 217.778C145.201 218.621 145.188 219.832 146.148 220.543C147.092 221.24 148.358 220.949 148.987 220.022L150.133 218.332C150.378 217.97 150.518 217.632 150.596 217.276C151.858 217.529 153.124 217.772 154.393 218.006L156.791 218.446C160.217 219.079 163.538 220.335 166.599 221.941C167.663 222.5 167.96 221.415 166.832 220.659C163.535 218.448 159.689 217.198 155.72 216.148L155.525 216.097C154.069 215.715 152.616 215.316 151.166 214.904C151.325 214.35 151.417 213.776 151.399 213.144C151.358 211.733 151.228 210.319 151.15 208.909C150.986 205.952 150.777 203.004 150.532 200.053C150.438 198.917 150.333 197.776 150.212 196.637C150.99 196.237 151.66 195.706 152.527 195.445L152.674 195.405C153.601 195.164 153.288 194.019 152.465 193.92C151.718 193.832 150.976 193.873 150.24 194.025C150.126 194.048 150.018 194.075 149.915 194.104C149.78 193.049 149.63 191.997 149.46 190.95C149.01 188.185 148.691 185.271 147.753 182.614C147.684 182.418 147.379 182.348 147.266 182.553C145.902 185.042 145.854 188.095 145.701 190.866L145.682 191.196C145.501 194.219 145.49 197.272 145.549 200.299C145.609 203.418 145.72 206.53 145.866 209.647C145.925 210.903 145.922 212.204 146.145 213.405C138.028 210.875 130.053 207.846 122.41 204.259C117.018 201.73 111.674 199.098 106.389 196.369C103.741 195.001 101.081 193.656 98.4365 192.283C97.5092 191.803 96.5831 191.32 95.6582 190.836L94.2697 190.111C92.9705 189.431 91.8866 188.754 90.3733 188.707C89.923 188.693 89.5181 188.895 89.2306 189.202C88.4183 188.648 87.4775 188.31 86.4915 188.318C85.0075 186.351 83.5003 184.401 81.9319 182.494L80.7746 181.081C78.7707 178.644 76.6482 176.17 74.0925 174.315C72.9511 173.488 71.6971 172.867 70.3881 172.354C70.6964 172.282 70.9974 172.136 71.2665 171.898C72.5156 170.786 72.6881 168.723 72.9413 167.173C73.2056 165.565 73.104 164.126 72.8435 162.523C72.7419 161.901 71.6666 161.772 71.4035 162.344C70.8506 163.549 70.2646 164.705 69.7618 165.925L69.6125 166.293C69.0718 167.666 67.9206 169.11 67.9977 170.599C68.0172 171.008 68.1604 171.363 68.3806 171.649C67.282 171.3 66.1687 170.988 65.0713 170.662C61.619 169.64 58.1543 168.645 54.6347 167.853C53.6988 167.642 52.7568 167.445 51.8123 167.265C51.3169 165.012 50.5951 162.799 49.7448 160.626C50.5498 160.23 51.071 159.566 51.7646 158.976C52.4142 158.424 52.8608 157.751 53.415 157.117C53.919 156.54 53.6352 155.496 52.7287 155.53L52.473 155.541C51.5334 155.583 50.6244 155.675 49.773 156.095L49.4696 156.245C49.0536 156.453 48.5985 156.69 48.1936 156.97C47.6626 155.801 47.1121 154.642 46.5543 153.496L45.8325 152.013C43.957 148.153 42.0877 144.148 39.7351 140.554C38.6891 138.957 37.2957 137.959 35.2979 137.805C33.2402 137.646 31.1005 137.851 29.0404 137.921C26.6511 138.003 24.2631 138.101 21.8763 138.222C22.4879 137.607 23.0458 136.924 23.6599 136.334C24.6802 135.356 25.758 134.428 26.8909 133.572C29.1321 131.877 31.5972 130.48 34.1565 129.277C36.7171 128.074 39.3534 127.025 41.7574 125.538C43.278 124.597 44.6372 123.414 45.8777 122.134C46.6582 130.209 50.726 137.714 56.8368 143.352C63.1837 149.206 71.954 152.423 80.5336 153.791C89.2857 155.186 98.4194 154.674 106.791 151.758C111.107 150.253 115.247 148.105 118.939 145.41C118.98 145.644 119.028 145.876 119.125 146.094C119.254 146.386 119.41 146.636 119.591 146.893L119.913 147.344C120.116 147.628 120.323 147.909 120.553 148.172C121.111 148.81 121.902 149.089 122.754 149.086C124.384 149.081 125.619 147.547 125.18 146.031C124.905 145.079 124.315 144.505 123.393 144.131C123.102 144.014 122.806 143.916 122.507 143.818L122.283 143.746C121.981 143.646 121.682 143.552 121.372 143.497C123.12 142.017 124.742 140.408 126.195 138.672C130.75 133.228 135.244 125.601 133.721 118.37C133.695 118.247 133.578 118.168 133.452 118.148C133.364 117.64 133.082 117.15 132.696 116.82C132.956 116.754 133.218 116.704 133.481 116.67ZM86.1722 241.696C85.2705 241.214 84.3383 242.357 85.0711 243.063L86.1661 244.114C87.1827 245.093 88.1712 246.083 89.041 247.198L89.2514 247.471C90.4259 249.002 91.6774 250.776 93.6005 251.349C95.9274 252.042 98.1637 249.324 96.8168 247.338C95.6387 245.604 93.373 244.95 91.4192 244.232C89.5707 243.553 87.9008 242.616 86.1722 241.696ZM161.23 233.69C160.7 233.025 159.318 233.375 159.68 234.317C160.856 237.374 161.335 241.544 164.306 243.576C165.264 244.23 166.77 243.93 167.559 243.172C168.456 242.313 168.492 241.103 167.979 240.053C167.353 238.774 165.815 237.846 164.737 236.872L164.64 236.783C163.48 235.703 162.226 234.94 161.23 233.69ZM37.0694 237.21C36.1225 236.818 33.6562 236.058 32.9258 236.958C32.8916 236.99 32.8622 237.027 32.839 237.067C32.6603 237.366 32.6334 237.787 32.839 238.082C33.6904 239.31 34.5774 240.226 35.7885 241.099L35.9243 241.196C37.2419 242.125 38.4812 243.217 40.0863 243.635C42.3128 244.217 43.8677 241.544 42.3042 239.984C41.0442 238.726 39.1222 238.074 37.4523 237.373L37.0694 237.21ZM126.466 219.738C126.838 219.092 126.078 218.301 125.388 218.704C123.423 219.857 121.133 220.721 118.926 221.341C118.031 221.592 117.225 222.461 117.292 223.398L117.302 223.54C117.329 223.87 117.377 224.2 117.596 224.474C118.365 225.439 119.465 225.811 120.64 225.24C123.257 223.968 125.049 222.192 126.466 219.738ZM69.0167 217.784C69.0644 217.511 68.8577 217.303 68.569 217.354C66.9088 217.657 65.3735 218.426 63.9483 219.31C63.1824 219.785 62.4447 220.306 61.6814 220.784C60.7381 221.376 60.3858 221.864 60.2463 222.95C60.1546 223.666 60.8519 224.321 61.4917 224.518C63.235 225.057 65.2328 223.289 66.4134 222.138L66.4672 222.087C67.7028 220.879 68.7231 219.45 69.0167 217.784ZM19.1249 215.906C19.5041 214.926 18.1988 214.112 17.3461 214.594C16.5423 215.048 15.6701 215.423 14.9128 215.943C14.2155 216.421 13.5805 216.986 12.9126 217.504L12.5822 217.754C11.3577 218.699 9.3354 221.034 11.0873 222.389C12.7535 223.678 14.9642 222.032 16.0836 220.828L16.1618 220.743C16.8053 220.029 17.5993 219.255 18.0654 218.421C18.5058 217.638 18.8044 216.739 19.1249 215.906ZM35.5659 140.01C37.6542 140.399 38.5056 142.87 39.384 144.481C41.4601 148.282 43.3686 152.154 45.2844 156.031C45.8753 157.222 46.4491 158.424 47.0289 159.624C47.0644 159.717 47.1097 159.81 47.1635 159.901C48.3514 162.353 49.5748 164.789 51.0037 167.115C49.6959 166.881 48.3808 166.68 47.0607 166.523C47.1268 165.332 46.2766 163.737 45.8557 162.733L45.8202 162.649C45.2954 161.362 44.7449 159.337 43.3943 158.67C42.9441 158.449 42.4621 158.727 42.4278 159.203C42.325 160.617 43.7686 162.237 44.4745 163.438C44.9015 164.165 45.3162 164.894 45.7224 165.632C45.8741 165.909 46.0013 166.179 46.1567 166.423C45.4765 166.352 44.795 166.29 44.1112 166.244L43.6658 166.215C41.1322 166.054 38.442 166.008 36.1531 167.207C34.0293 168.317 32.9429 170.689 34.11 172.849C35.5634 175.54 38.7638 175.897 41.5788 176.115C45.0948 176.386 48.6181 176.877 52.1084 177.355C55.7198 177.851 59.1196 179.127 62.6759 179.784C63.0075 179.845 63.213 179.43 62.9096 179.253C60.1044 177.614 56.6936 176.714 53.5569 175.796L53.3024 175.721C51.6007 175.22 49.9381 174.648 48.1777 174.363C46.4698 174.087 44.7498 173.865 43.0273 173.694L42.8596 173.679C40.9622 173.527 36.1213 173.578 36.3256 170.885C36.4614 169.101 39.4831 168.794 40.8631 168.773C47.1892 168.676 53.5593 170.286 59.571 172.011L60.9131 172.396C63.3745 173.107 65.8396 173.838 68.2558 174.67C70.9925 175.613 73.1493 177.083 75.1422 179.097C77.3528 181.329 79.4937 183.611 81.7864 185.769C83.2324 187.128 84.6968 188.463 86.1722 189.788C86.5062 190.202 86.7729 190.652 86.9576 191.236C87.2695 192.224 87.1974 193.141 87.0799 194.154C86.7826 196.713 86.7166 199.3 86.3447 201.852C85.9997 204.216 85.5164 206.667 84.4925 208.86C84.0875 209.728 83.5603 210.582 82.9584 211.344L82.4739 211.949C82.2622 212.211 82.0261 212.499 81.7778 212.768C81.4132 212.343 80.8859 212.065 80.273 212.135C78.9714 212.282 77.9474 212.247 76.6702 211.959C75.6805 211.738 74.6993 211.477 73.7157 211.237C71.7816 210.764 69.8315 210.334 67.9181 209.791L67.589 209.696C66.1626 209.276 64.7361 208.751 63.5494 207.868C62.1707 206.843 61.7462 205.364 60.7247 204.083C58.5446 201.351 53.8309 201.408 50.6403 200.66C47.9281 200.025 45.3186 199.021 43.442 197.134L43.3331 197.022C43.4163 196.685 43.2817 196.305 42.9551 196.131L42.8841 196.093C42.7569 196.025 42.6199 195.997 42.4853 195.999C42.3116 195.754 42.1427 195.501 41.9898 195.231C41.8651 195.008 41.5506 195.173 41.5922 195.392C41.6167 195.523 41.651 195.651 41.6828 195.779C39.8648 195.331 37.8683 195.417 36.0234 195.418L33.628 195.41C33.2133 195.405 32.5955 195.385 32.5405 195.36L32.4842 195.337C32.3349 195.275 32.5466 195.377 32.4426 195.244C32.3276 195.098 32.215 194.95 32.1037 194.8C31.7061 194.267 31.3305 193.719 30.9635 193.165C34.9738 194.145 39.1296 194.755 43.2242 195.263C47.6186 195.809 52.0705 196.188 56.5028 196.192C57.7249 196.193 57.7139 194.423 56.5028 194.38C51.8087 194.208 47.139 193.97 42.4767 193.393C40.0655 193.094 37.664 192.72 35.2771 192.281C34.3547 192.112 33.436 191.933 32.5184 191.744L31.8309 191.6C31.399 191.508 30.1806 191.377 29.586 190.995C29.4686 190.802 29.3523 190.61 29.2361 190.418C29.2936 189.742 31.0834 189.833 31.503 189.832C32.6934 189.829 33.8837 189.839 35.0753 189.842C37.456 189.848 39.8355 189.828 42.2174 189.81C46.9739 189.773 51.7487 189.613 56.5016 189.808C57.6552 189.856 58.2608 188.082 57.1206 187.615C52.0864 185.554 46.498 185.106 41.1225 184.473C38.2952 184.14 35.4668 183.755 32.7044 183.081L32.0205 182.914C30.2845 182.488 28.3675 181.967 26.9056 180.95C29.1028 180.098 31.8345 180.195 34.1113 180.074L34.2862 180.065C37.4756 179.878 40.6698 179.781 43.8653 179.777C50.403 179.768 56.942 179.99 63.4724 180.288C63.6363 180.295 63.6706 180.046 63.5103 180.014C56.7988 178.61 49.9773 177.933 43.108 177.829C39.9101 177.78 36.7085 177.823 33.513 177.959L32.3398 178.011C29.6153 178.123 26.5912 178.154 24.3108 179.732C23.9633 179.972 23.7798 180.28 23.7517 180.605C20.6932 174.76 17.8697 168.793 15.0339 162.866C12.8294 158.257 10.7068 153.611 8.42274 149.037L7.6826 147.559C6.69167 145.584 5.67749 143.611 4.55077 141.708C8.76408 141.168 13.0006 140.793 17.2396 140.506C21.1031 140.244 33.7063 139.665 35.5659 140.01ZM37.4315 203.354C36.952 203.097 36.2155 203.306 36.0968 203.874C36.0087 204.297 35.8583 204.767 35.8583 205.199C35.8583 205.718 36.0515 206.281 36.1543 206.788C36.3916 207.955 36.684 208.902 37.3018 209.941C37.6884 210.591 38.4702 211.032 39.2556 211.015C39.877 211.001 40.4288 210.842 40.8545 210.38C41.3659 209.826 41.717 209.014 41.4369 208.269C40.7028 206.319 39.3522 204.376 37.4315 203.354ZM139.342 201.407C138.218 199.519 135.553 197.832 133.227 197.999C129.735 198.25 129.022 202.758 132.403 203.833C134.424 204.477 137.204 203.817 138.972 202.758C139.449 202.473 139.624 201.881 139.342 201.407ZM175.232 194.957C175.487 194.6 175.065 194.195 174.685 194.274C173.841 194.451 172.931 194.53 172.104 194.77C171.258 195.018 170.438 195.427 169.6 195.709C167.843 196.298 165.967 196.595 164.267 197.307C163.588 197.592 163.053 198.536 163.116 199.231L163.132 199.394C163.17 199.739 163.232 200.04 163.434 200.355C163.975 201.203 165.046 201.641 166.058 201.379C167.935 200.896 169.768 199.654 171.369 198.622L171.664 198.435C172.363 197.993 173.115 197.531 173.679 196.963C174.266 196.369 174.75 195.629 175.232 194.957ZM110.72 188.089C110.937 187.343 109.968 186.851 109.404 187.355C108.277 188.362 107.098 189.296 105.993 190.329L105.92 190.399C105.13 191.161 103.978 192.629 105.007 193.614C106.325 194.878 108.16 193.003 108.867 192.027C109.763 190.787 110.301 189.538 110.72 188.089ZM24.4453 181.922C26.1177 183.62 28.6941 184.401 30.9635 185.049C33.6537 185.815 36.4247 186.273 39.1993 186.65C41.881 187.014 44.5406 187.339 47.1794 187.756C45.1841 187.781 43.1875 187.795 41.1971 187.829C38.9008 187.869 36.6057 187.917 34.3094 187.98C32.6371 188.027 30.676 187.806 29.0869 188.402C28.8006 188.51 28.5339 188.659 28.3002 188.84C26.9643 186.562 25.6834 184.254 24.4453 181.922ZM127.607 166.038C125.862 165.506 124.22 164.8 122.37 164.985C121.878 165.033 121.525 165.491 121.794 165.945C122.671 167.425 124.097 168.261 125.501 169.25L125.625 169.338C127.161 170.434 128.811 171.433 130.482 172.332C133.359 173.88 135.937 169.449 133.032 168.149C131.283 167.366 129.447 166.598 127.607 166.038ZM96.1782 162.191C93.5076 162.36 90.8381 162.474 88.1651 162.578C85.0675 162.698 86.1086 167.269 88.696 166.344C91.2516 165.43 93.8085 164.527 96.3874 163.675C97.1728 163.416 97.1092 162.179 96.2283 162.189L96.1782 162.191ZM164.677 154.061C163.985 154.015 163.287 154.159 162.594 154.224L161.856 154.293C160.336 154.437 158.91 154.617 157.46 155.21C154.785 156.305 156.222 160.429 158.907 160.334C160.893 160.264 162.59 159.446 164.267 158.495C165.732 157.663 166.631 156.622 167.62 155.315C167.948 154.883 167.491 154.399 167.045 154.355C166.259 154.278 165.464 154.114 164.677 154.061ZM30.5573 145.639C31.0002 148.288 32.1 150.771 33.7553 152.933C34.5872 154.019 36.0491 154.06 36.8737 152.933C38.0408 151.338 37.3214 149.51 36.4418 147.979L36.1812 147.531C35.7885 146.858 35.1842 145.876 34.493 145.2L34.482 145.13C34.1113 142.356 30.101 142.91 30.5573 145.639ZM138.577 128.639C137.912 128.064 136.685 128.237 136.469 129.173C136.167 130.483 135.983 131.96 136.181 133.29C136.288 134.011 136.328 134.82 136.624 135.492C136.942 136.214 137.553 136.77 138.13 137.314C139.28 138.397 141.704 138.04 142.012 136.33L142.052 136.121C142.207 135.312 142.405 134.448 142.175 133.647C142.002 133.042 141.615 132.426 141.295 131.865L141.227 131.745C140.586 130.6 139.586 129.509 138.577 128.639ZM44.9908 131.426L44.7498 131.429C42.8914 131.464 39.4941 131.898 39.4758 134.1C39.4721 134.619 39.8722 135.156 40.4104 135.276C41.5213 135.523 42.2394 134.894 43.0309 134.258C43.6781 133.738 44.4329 133.323 45.2171 133.025C46.0637 132.701 46.0074 131.425 44.9908 131.426Z" fill="#4C4C4C"/>
<path fill-rule="evenodd" clip-rule="evenodd" d="M39.1062 66.8148C40.7272 55.602 44.434 44.7155 44.9662 33.3349C45.2831 28.465 45.5999 23.5947 45.9155 18.7241C46.0354 15.6823 50.157 14.6561 51.7315 17.3509C55.3086 13.5463 61.7155 14.1067 66.6029 14.2221C95.3768 15.1998 122.721 33.8537 132.598 59.8626C132.836 60.4829 132.764 61.143 132.495 61.7328C137.099 76.4546 120.817 85.9326 109.712 92.4967C105.208 97.0615 99.913 100.854 93.9344 103.451C87.0566 106.552 79.4006 108.283 71.801 108.448C70.1335 108.485 69.1316 107.191 69.0105 105.854C66.5858 105.312 62.4373 105.937 61.1552 103.555C46.5358 97.4661 37.0093 82.0337 39.1062 66.8148Z" fill="#F3E8DA"/>
<path fill-rule="evenodd" clip-rule="evenodd" d="M45.9474 27.0511C45.989 26.6875 45.4421 26.6763 45.3283 26.9707C44.4023 29.3913 43.4419 31.7952 42.7079 34.2769C41.9995 36.6687 41.4906 39.1147 40.9743 41.5503C40.118 45.5924 39.3815 49.6642 38.7735 53.749C37.4718 52.7746 35.7701 52.6858 34.1675 53.4442C33.4151 53.7999 33.1264 54.7403 33.3074 55.47C33.4518 56.0552 33.6292 56.638 33.842 57.2079C33.3869 57.5936 33.0016 58.0685 32.7214 58.6149C31.9837 60.0525 32.2211 61.5605 32.8829 62.9324C32.8327 63.0133 32.7826 63.0966 32.7361 63.1833C31.7782 64.9668 32.2908 66.565 32.9906 68.3063C33.5142 69.6079 33.2218 71.0748 34.3522 72.0586C34.7461 73.2687 35.3358 74.3955 36.1946 75.4122C36.3891 75.7546 36.6815 76.0301 37.0277 76.233C37.1146 78.1431 37.325 80.0485 37.7214 81.9364C39.2579 89.2662 44.1343 95.7975 50.1705 100.405C56.0782 104.912 63.016 107.605 70.5018 108.477C74.1377 108.9 77.7773 108.766 81.3825 108.162L81.8315 108.086C85.1591 107.507 89.184 106.549 91.4852 104.143C92.6951 102.878 91.9868 100.093 89.8483 100.355C88.7155 100.495 87.7295 100.668 86.6627 101.069C85.8308 101.382 84.9964 101.684 84.1425 101.939C82.5069 102.427 80.8149 102.808 79.1156 103.019C75.5764 103.458 71.8989 103.342 68.4 102.679C62.0385 101.476 55.858 98.7008 51.0305 94.5217C45.4176 89.6637 42.128 83.3752 41.6448 76.1239C41.1052 68.0472 42.0778 59.777 42.8853 51.7419C43.3049 47.5623 43.8383 43.3912 44.4805 39.2376C45.1081 35.1792 45.4837 31.1265 45.9474 27.0511ZM95.6129 0.971232L95.3401 0.931127C84.5364 -0.645291 73.17 -0.533425 63.0147 3.74157C61.0683 4.56156 59.1635 5.5504 57.3701 6.69788C56.0855 6.56925 54.7924 6.46489 53.5238 6.44777C51.9273 6.42772 50.3687 7.2232 50.1717 8.77217C48.6755 8.95052 47.298 9.47842 46.4159 10.5344C46.0722 10.9456 45.8422 11.4214 45.7259 11.917C44.806 12.1254 43.9043 12.4449 43.0492 12.8662C42.0093 13.3792 41.4099 14.8066 41.7769 15.8627C41.8613 16.1023 41.9579 16.3359 42.0656 16.5643L42.1488 16.7347L42.0998 16.7992C41.2704 18.078 41.8466 19.7557 43.1189 20.5191C44.0719 21.0915 45.1375 21.5476 46.2324 21.7681C46.1419 22.1894 46.0599 22.6132 45.9926 23.0419C45.9669 23.2157 46.1994 23.3395 46.3022 23.1683C46.3022 23.1683 45.9094 24.3405 45.3173 25.6319C45.0849 26.1397 45.8299 26.5907 46.1138 26.0778C46.8686 24.7098 47.3359 23.3071 48.021 21.897C48.6547 21.8574 49.2848 21.7185 49.8928 21.4534C50.2904 21.2799 50.5926 20.9874 50.8103 20.638C50.8225 20.6529 50.8311 20.6702 50.8433 20.6876C52.8827 23.203 56.8685 24.0853 59.949 24.8807C63.257 25.736 66.6433 26.2637 70.0418 26.6527C75.9764 27.3293 81.9575 27.4557 87.9191 27.7186C88.3142 27.7357 88.7081 27.7549 89.1033 27.7731C91.5244 29.8103 94.644 31.0762 97.8444 31.461C99.4653 31.6558 101.384 31.6063 103.202 31.2093C103.86 31.8536 104.69 32.3308 105.598 32.576C105.762 35.8222 107.65 38.8958 110.504 40.6874L110.452 40.8803C109.744 43.6524 109.753 46.6824 112.295 48.6091C112.64 48.8697 113.015 49.0934 113.411 49.2786L113.324 49.4701C112.011 52.4129 111.591 55.6634 114.06 58.1049C115.061 59.0945 116.818 58.86 117.569 57.725L117.606 57.6675C117.647 57.5995 117.692 57.535 117.735 57.4682C117.803 57.5995 117.904 57.7097 118.056 57.7719C118.994 58.1588 119.37 57.8739 120.225 57.4752C121.016 57.1035 121.851 56.8256 122.703 56.6098C123.399 56.4363 124.091 56.312 124.789 56.2405C129.199 57.8563 132.047 62.8128 131.37 67.4644C131.003 69.9972 129.552 72.5053 127.025 73.556C125.919 74.0168 124.619 74.2103 123.422 74.0543C121.802 73.8433 120.555 72.8653 118.878 73.4246C118.216 73.6451 117.803 74.1434 117.767 74.8247C117.707 75.8953 118.104 76.6985 118.77 77.293C117.593 78.2346 116.645 79.5432 115.624 80.5868C114.348 81.893 113.052 83.1993 111.672 84.4035C110.369 85.5456 108.984 86.6068 107.516 87.5484L107.362 87.6457C105.522 88.7948 103.205 89.8138 103.117 92.2152C103.089 92.9387 103.547 93.6024 104.167 93.9718C106.485 95.3496 109.008 93.5403 110.824 92.2152C111.556 91.6817 112.267 91.1294 112.952 90.5572C113.409 90.5912 113.909 90.5197 114.427 90.2992C114.761 90.1609 115.087 89.9967 115.407 89.8232C116.448 90.0741 117.431 89.8537 118.239 89.3307C119.405 89.6051 120.641 89.6379 121.69 89.4175C122.649 89.2134 123.505 88.7796 124.21 88.198C125.684 88.6483 127.32 88.565 128.772 87.709C129.643 87.1966 130.323 86.4649 130.693 85.6101C130.881 85.3275 131.001 84.998 131.01 84.6357L131.01 84.4973C132.277 84.5255 133.546 84.108 134.526 83.1477C135.425 82.2647 135.864 81.1648 135.913 80.0462C137.188 79.7003 138.353 78.9885 139.24 77.891C140.708 76.0712 140.904 73.8233 140.149 71.8159C140.199 71.7103 140.243 71.6013 140.281 71.4922C141.452 69.9081 142.225 67.9979 142.163 66.0819C142.155 65.7841 142.114 65.4921 142.052 65.2025C143.205 64.615 144.052 63.5832 144.143 62.2722C144.213 61.2439 143.828 60.2378 143.132 59.4768C143.471 58.7017 143.621 57.8586 143.517 57.0167C143.411 56.1514 143.093 55.4004 142.628 54.7737C142.639 54.5457 142.626 54.315 142.587 54.0795C142.633 53.8491 142.672 53.6112 142.693 53.3686C142.913 50.7116 141 48.387 138.671 47.1602C138.059 46.8381 137.397 46.5754 136.735 46.3523C136.255 46.1888 135.531 46.1342 135.107 45.8344C135.125 45.822 134.949 45.6042 134.918 45.4874C134.885 45.3437 134.849 45.2025 134.83 45.0563C134.761 44.4416 134.812 43.8097 134.825 43.1926C134.882 40.3921 134.792 37.5793 134.484 34.7937C133.913 29.6291 132.504 24.576 129.76 20.0631C127.457 16.2813 124.303 13.0868 120.687 10.4375C113.485 5.16309 104.497 2.29531 95.6129 0.971232ZM128.99 65.199C129.927 63.0391 125.513 63.018 124.346 63.12L124.312 63.1235C121.685 63.3745 117.579 64.5857 116.503 67.1267C116.059 68.1785 117.376 69.3194 118.43 68.9735C119.461 68.6347 120.04 67.9077 120.867 67.2709C121.085 67.1044 121.311 66.9485 121.541 66.7984C121.42 67.1689 121.226 67.5113 120.956 67.7669L120.893 67.8244C119.622 68.9196 121.895 70.6398 122.738 69.1904C123.187 68.4189 123.367 67.5723 123.227 66.6964C123.186 66.4372 123.113 66.2015 123.008 65.9752C123.092 65.9354 123.174 65.892 123.259 65.8533L123.41 65.7853C124.422 65.3456 128.739 63.6172 128.704 65.1626C128.7 65.3338 128.931 65.3338 128.99 65.199Z" fill="#4C4C4C"/>
<path fill-rule="evenodd" clip-rule="evenodd" d="M68.2703 88.9507C70.0075 88.2706 71.5576 87.1368 72.6916 85.6886C73.0856 85.1856 73.1871 84.6544 73.1051 84.1678C73.0122 83.6214 72.6745 83.1254 72.2145 82.7935C71.7533 82.4593 71.1759 82.2952 70.618 82.3796C70.1323 82.4523 69.6503 82.7068 69.2674 83.2344L69.1879 83.3399C68.5138 84.2147 67.6366 84.9311 66.6359 85.3931C65.6719 85.8387 64.5929 86.0474 63.4771 85.9267C61.3509 85.6957 59.8865 84.5934 58.3292 83.0972C58.1359 82.9084 57.9426 82.7126 57.7493 82.5156C57.6269 82.335 57.4569 82.2201 57.2673 82.1592C57.0581 82.0923 56.8207 82.0958 56.603 82.1685C56.3938 82.2389 56.2066 82.3714 56.0806 82.5485C55.9619 82.7173 55.8934 82.9248 55.9154 83.1629C56.0586 84.7142 56.9039 86.099 58.1053 87.186C59.44 88.3926 61.209 89.2286 62.874 89.5206C64.7079 89.8442 66.5772 89.6133 68.2703 88.9507ZM62.0079 65.0207C60.0566 66.1581 57.0825 68.8105 59.1819 71.6305C61.6543 74.1176 65.2119 71.2659 66.965 69.9772C68.5921 68.9782 70.4186 71.5473 68.9102 72.714C56.2396 81.7089 51.0965 65.3185 61.0206 63.6828C62.1143 63.5034 62.5192 64.6689 62.0079 65.0207ZM84.7138 54.5573C84.4985 51.9908 80.4222 51.408 80.016 53.9477C79.6539 56.2228 80.0809 58.3124 81.1501 60.3609C82.1704 62.3179 84.737 61.4045 84.9315 59.6233C85.1921 57.2348 84.8484 56.1537 84.7138 54.5573ZM53.6828 53.4211C53.1139 52.7073 52.2942 52.2201 51.3106 52.4954C48.2387 53.3561 49.144 57.5373 50.223 59.5729C50.809 60.6786 52.7041 60.9589 53.5604 59.9856C54.9563 58.398 55.6243 55.229 53.8504 53.6657C53.8014 53.5849 53.7488 53.5034 53.6828 53.4211ZM81.1929 43.3269L80.7072 43.2455C79.2061 42.9966 77.3405 42.7574 76.2786 43.9145C75.7146 44.5281 75.5213 45.6687 76.2786 46.256C77.6096 47.2894 79.0826 46.889 80.6779 46.9765C81.993 47.0488 83.2567 47.2574 84.5229 47.6046C87.3024 48.3662 89.5669 49.7565 91.9403 51.2831C92.251 51.4834 92.5691 51.1015 92.4211 50.8222C91.0509 48.2489 88.3962 46.1352 85.7365 44.8468C84.3162 44.1591 82.7637 43.5886 81.1929 43.3269ZM56.4831 42.1743L56.1112 42.2471C52.0691 43.0572 46.8184 44.6753 44.905 48.4818C44.8316 49.02 44.9087 49.1354 44.9711 49.2107L44.9919 49.2358C45.0445 49.3002 45.0849 49.3889 45.3283 49.4622C45.3956 49.4467 45.4641 49.4304 45.5338 49.4131C46.411 49.1926 47.1046 48.8889 47.7763 48.5739L48.5054 48.2296C49.3508 47.8322 50.2035 47.4492 51.1076 47.1665C53.0356 46.5634 55.0199 46.1384 57.0336 45.9115C57.4703 45.8624 57.8912 45.7211 58.2227 45.479C58.5371 45.2491 58.7781 44.9309 58.8882 44.5078C59.0302 43.9603 58.9898 43.5458 58.6827 43.0519C58.4527 42.6811 58.1224 42.424 57.7444 42.2764C57.359 42.1258 56.9198 42.0904 56.4831 42.1743Z" fill="#4C4C4C"/>
<path fill-rule="evenodd" clip-rule="evenodd" d="M38.8763 66.5297C42.0143 69.6394 47.2528 70.5317 51.4282 68.8643C62.1486 64.5692 56.9016 51.1743 48.634 47.5771C47.6014 47.3302 46.2215 46.7446 44.9638 46.6118C44.8501 46.5583 44.6017 46.7132 44.302 46.5668C35.1866 47.5427 33.1105 61.1112 38.8763 66.5297ZM73.4539 67.3259C76.9723 71.8016 83.5162 73.1829 88.8623 71.1016C99.4226 67.1137 95.6778 55.2356 88.4513 50.579C73.1872 45.0795 66.8843 59.0733 73.4539 67.3259ZM96.3482 57.4082C96.358 57.4035 96.3678 57.4012 96.3776 57.3977C96.3225 57.3742 96.2662 57.3496 96.2112 57.3261C96.2283 57.3719 96.2479 57.4164 96.2662 57.4621C96.2932 57.4434 96.3176 57.4223 96.3482 57.4082ZM31.6119 52.5699C32.4731 52.5717 33.7173 52.7074 34.4318 53.2807C36.1898 47.5924 42.6834 42.3279 48.3306 46.1667C52.7775 47.5379 56.077 50.5789 57.9524 54.6219C61.3339 52.6934 66.6507 53.5169 69.5831 56.0668C71.5038 49.983 76.2297 47.8524 81.8548 47.5379C87.995 46.5736 94.1143 52.2912 96.024 56.8782C97.6119 56.7047 99.9841 56.2204 101.478 57.1596C111.172 54.7221 128.121 53.3782 130.091 54.7325C131.496 55.2491 132.266 58.4284 130.305 58.5995C128.595 58.3662 130.504 56.2708 128.781 56.041C119.6 55.4957 110.687 57.2687 101.603 58.0133C100.792 59.0592 98.171 59.4086 96.7727 58.9888C98.9748 66.7689 94.222 72.0631 87.0995 73.6484C76.0719 76.0769 66.4782 66.6177 69.3617 56.7797C66.0206 55.186 62.178 55.2544 58.5397 56.0937C64.6199 77.5531 28.5767 76.5905 34.2054 54.0161C30.4594 55.8029 29.6459 52.9306 31.6119 52.5699Z" fill="#4C4C4C"/>
</svg>
